<svg xmlns="http://www.w3.org/2000/svg" xmlns:xlink="http://www.w3.org/1999/xlink" width="888" height="485.489" data-name="Layer 1" viewBox="0 0 888 485.489"><title>breakfast</title><path fill="#d6d6d6" d="M275.41211,460.30048H246.99329a3.76777,3.76777,0,0,0-3.76777,3.76776v12.47387a3.76777,3.76777,0,0,0,3.76777,3.76777h4.70941V499h19V480.30988h4.70941a3.76777,3.76777,0,0,0,3.76776-3.76777V464.06824A3.76777,3.76777,0,0,0,275.41211,460.30048Z" transform="translate(-156 -207.2555)"/><path fill="#3f3d56" d="M303.87661,574.46128a146.10549,146.10549,0,0,1-25.418-86.62437,3.08142,3.08142,0,0,0-2.40522-3.075V479.372H246.03933v5.315h-.41356a3.07971,3.07971,0,0,0-3.06724,3.30786q3.54683,49.44186-23.95358,88.677a8.4873,8.4873,0,0,0-1.53606,5.14352l3.28188,101.51817a8.78815,8.78815,0,0,0,8.713,8.48191h67.88732a8.79123,8.79123,0,0,0,8.71824-8.63152l1.26471-98.56588A17.78875,17.78875,0,0,0,303.87661,574.46128Z" transform="translate(-156 -207.2555)"/><path d="M269.48783,464.36493a8.12881,8.12881,0,0,1-16.25763,0" opacity=".2" transform="translate(-156 -207.2555)"/><path fill="#d6d6d6" d="M293.12991,608.18244h-8.22064a21.57614,21.57614,0,0,0-42.6488,0h-8.22118a6.06671,6.06671,0,0,0-5.99616,6.98918l8.92944,58.04135h51.27407l10.84608-57.84582A6.0667,6.0667,0,0,0,293.12991,608.18244Z" transform="translate(-156 -207.2555)"/><polygon fill="#e6e6e6" points="827.952 307.634 825.98 386.448 823.538 484.181 740.414 484.181 737.552 369.675 736 307.634 827.952 307.634"/><rect width="11.77" height="155.95" x="775.723" y="265.704" fill="#d6d6d6"/><path fill="#3f3d56" d="M978.06676,574.27527l-2.22611,112.02H900.07391l-2.60826-131.24365a51.63393,51.63393,0,0,1,40.82688,5.61536C950.95161,568.15405,965.173,572.18424,978.06676,574.27527Z" transform="translate(-156 -207.2555)"/><rect width="10.8" height="10.8" x="752.031" y="379.63" fill="#e6e6e6"/><rect width="10.8" height="10.8" x="759.387" y="357.562" fill="#e6e6e6"/><rect width="10.8" height="10.8" x="936.424" y="575.816" fill="#e6e6e6" transform="translate(375.57517 -653.92108) rotate(36.56259)"/><rect width="10.8" height="10.8" x="955.937" y="594.951" fill="#e6e6e6" transform="translate(390.81432 -661.77916) rotate(36.56259)"/><rect width="10.8" height="10.8" x="922.834" y="605.986" fill="#e6e6e6" transform="translate(390.87303 -639.88846) rotate(36.56259)"/><circle cx="805.148" cy="351.035" r="2.207" fill="#3f3d56"/><circle cx="760.275" cy="336.323" r="2.207" fill="#3f3d56"/><circle cx="797.792" cy="320.875" r="2.207" fill="#3f3d56"/><circle cx="444.508" cy="241.754" r="241.754" fill="#d6d6d6"/><path d="M600.50808,625.46663a176.45595,176.45595,0,1,1,124.77436-51.68275A175.30352,175.30352,0,0,1,600.50808,625.46663Zm0-342.0314c-91.29808,0-165.5743,74.27621-165.5743,165.57429,0,91.2977,74.27622,165.5743,165.5743,165.5743,91.2977,0,165.57429-74.2766,165.57429-165.5743C766.08237,357.71144,691.80578,283.43523,600.50808,283.43523Z" opacity=".2" transform="translate(-156 -207.2555)"/><circle cx="444.508" cy="241.754" r="171.016" fill="#3f3d56"/><path fill="#ff6584" d="M473.32742,380.62742a21.704,21.704,0,1,1,38.68118-19.69819l48.31632,94.87836a21.704,21.704,0,1,1-38.68118,19.69819Z" transform="translate(-156 -207.2555)"/><path d="M478.71655,391.21l-2.23-4.379c11.12916-8.64736,24.19788-15.007,38.68118-19.69819l2.23,4.379C501.72232,374.77607,488.38616,380.817,478.71655,391.21Z" opacity=".2" transform="translate(-156 -207.2555)"/><path d="M489.12314,411.64534l-2.23-4.379c11.12915-8.64736,24.19788-15.007,38.68117-19.69819l2.23,4.379C512.12891,395.21141,498.79275,401.25236,489.12314,411.64534Z" opacity=".2" transform="translate(-156 -207.2555)"/><path d="M499.52973,432.08068l-2.23-4.379c11.12915-8.64736,24.19788-15.007,38.68118-19.69819l2.23,4.379C522.5355,415.64675,509.19935,421.6877,499.52973,432.08068Z" opacity=".2" transform="translate(-156 -207.2555)"/><path d="M509.93632,452.516l-2.23-4.379c11.12916-8.64736,24.19788-15.007,38.68118-19.69819l2.23,4.379C532.94209,436.08209,519.60594,442.123,509.93632,452.516Z" opacity=".2" transform="translate(-156 -207.2555)"/><path d="M520.34292,472.95136l-2.23-4.379c11.12916-8.64736,24.19788-15.007,38.68118-19.69819l2.23,4.379C543.34868,456.51743,530.01253,462.55838,520.34292,472.95136Z" opacity=".2" transform="translate(-156 -207.2555)"/><path fill="#ff6584" d="M437.07906,416.14643a21.704,21.704,0,1,1,38.68118-19.6982l48.31632,94.87837a21.704,21.704,0,0,1-38.68118,19.69819Z" transform="translate(-156 -207.2555)"/><path d="M442.46819,426.729l-2.23-4.379c11.12916-8.64736,24.19788-15.007,38.68118-19.69819l2.23,4.379C465.474,410.29508,452.1378,416.336,442.46819,426.729Z" opacity=".2" transform="translate(-156 -207.2555)"/><path d="M452.87478,447.16435l-2.23-4.379c11.12915-8.64736,24.19788-15.007,38.68118-19.69819l2.23,4.379C475.88055,430.73042,462.5444,436.77137,452.87478,447.16435Z" opacity=".2" transform="translate(-156 -207.2555)"/><path d="M463.28137,467.59969l-2.23-4.379c11.12915-8.64736,24.19788-15.007,38.68118-19.69819l2.23,4.379C486.28714,451.16576,472.951,457.20671,463.28137,467.59969Z" opacity=".2" transform="translate(-156 -207.2555)"/><path d="M473.688,488.035l-2.23-4.379c11.12916-8.64736,24.19788-15.007,38.68118-19.69819l2.23,4.379C496.69373,471.6011,483.35758,477.64205,473.688,488.035Z" opacity=".2" transform="translate(-156 -207.2555)"/><path d="M484.09456,508.47037l-2.23-4.379c11.12916-8.64736,24.19788-15.007,38.68118-19.69819l2.23,4.379C507.10032,492.03644,493.76417,498.07739,484.09456,508.47037Z" opacity=".2" transform="translate(-156 -207.2555)"/><path fill="#e6e6e6" d="M714.77766,454.45093l.15257.00013a25.8881,25.8881,0,0,0,24.23924-16.23619,84.50284,84.50284,0,0,0,5.9231-31.69393c-.27144-45.91073-37.62223-83.57515-83.52936-84.21021a84.74394,84.74394,0,0,0-35.27687,162.32018,25.66668,25.66668,0,0,0,28.50566-5.28585A84.45815,84.45815,0,0,1,714.77766,454.45093Z" transform="translate(-156 -207.2555)"/><circle cx="515.246" cy="193.559" r="27.984" fill="#f9a825"/><circle cx="454.426" cy="187.115" r="3.297" fill="#3f3d56"/><circle cx="345.598" cy="190.225" r="3.297" fill="#3f3d56"/><circle cx="471.996" cy="152.949" r="3.297" fill="#3f3d56"/><circle cx="471.902" cy="247.973" r="3.297" fill="#3f3d56"/><circle cx="537.199" cy="146.141" r="3.297" fill="#3f3d56"/><circle cx="324.207" cy="236.313" r="3.297" fill="#3f3d56"/><circle cx="348.305" cy="283.731" r="3.297" fill="#3f3d56"/><circle cx="499.7" cy="289.949" r="12.438" fill="#ff6584"/><path d="M665.02764,497.9822a9.32813,9.32813,0,0,1-18.65626,0" opacity=".2" transform="translate(-156 -207.2555)"/><path d="M646.37138,496.42751a9.32813,9.32813,0,0,1,18.65626,0" opacity=".2" transform="translate(-156 -207.2555)"/><ellipse cx="495.035" cy="285.674" fill="#ff6584" rx=".777" ry="1.166"/><ellipse cx="499.7" cy="284.119" fill="#ff6584" rx=".777" ry="1.166"/><ellipse cx="499.7" cy="294.225" fill="#ff6584" rx=".777" ry="1.166"/><ellipse cx="504.364" cy="288.006" fill="#ff6584" rx=".777" ry="1.166"/><ellipse cx="503.586" cy="296.557" fill="#ff6584" rx=".777" ry="1.166"/><ellipse cx="494.258" cy="292.67" fill="#ff6584" rx=".777" ry="1.166"/><circle cx="524.575" cy="256.524" r="12.438" fill="#ff6584"/><path d="M689.90265,464.5564a9.32813,9.32813,0,0,1-18.65626,0" opacity=".2" transform="translate(-156 -207.2555)"/><path d="M671.24639,463.00172a9.32813,9.32813,0,0,1,18.65626,0" opacity=".2" transform="translate(-156 -207.2555)"/><ellipse cx="519.91" cy="252.248" fill="#ff6584" rx=".777" ry="1.166"/><ellipse cx="524.575" cy="250.693" fill="#ff6584" rx=".777" ry="1.166"/><ellipse cx="524.575" cy="260.799" fill="#ff6584" rx=".777" ry="1.166"/><ellipse cx="529.239" cy="254.58" fill="#ff6584" rx=".777" ry="1.166"/><ellipse cx="528.461" cy="263.131" fill="#ff6584" rx=".777" ry="1.166"/><ellipse cx="519.133" cy="259.244" fill="#ff6584" rx=".777" ry="1.166"/><circle cx="549.45" cy="273.625" r="12.438" fill="#d6d6d6"/><path d="M714.77766,481.658a9.32813,9.32813,0,0,1-18.65626,0" opacity=".2" transform="translate(-156 -207.2555)"/><path d="M696.1214,480.10329a9.32813,9.32813,0,0,1,18.65626,0" opacity=".2" transform="translate(-156 -207.2555)"/><ellipse cx="544.785" cy="269.35" fill="#d6d6d6" rx=".777" ry="1.166"/><ellipse cx="549.45" cy="267.795" fill="#d6d6d6" rx=".777" ry="1.166"/><ellipse cx="549.45" cy="277.901" fill="#d6d6d6" rx=".777" ry="1.166"/><ellipse cx="554.114" cy="271.682" fill="#d6d6d6" rx=".777" ry="1.166"/><ellipse cx="553.336" cy="280.233" fill="#d6d6d6" rx=".777" ry="1.166"/><ellipse cx="544.008" cy="276.346" fill="#d6d6d6" rx=".777" ry="1.166"/><circle cx="487.262" cy="275.18" r="12.438" fill="#d6d6d6"/><path d="M652.59013,483.21266a9.32813,9.32813,0,0,1-18.65626,0" opacity=".2" transform="translate(-156 -207.2555)"/><path d="M633.93387,481.658a9.32813,9.32813,0,0,1,18.65626,0" opacity=".2" transform="translate(-156 -207.2555)"/><ellipse cx="482.598" cy="270.904" fill="#d6d6d6" rx=".777" ry="1.166"/><ellipse cx="487.262" cy="269.35" fill="#d6d6d6" rx=".777" ry="1.166"/><ellipse cx="487.262" cy="279.455" fill="#d6d6d6" rx=".777" ry="1.166"/><ellipse cx="491.926" cy="273.236" fill="#d6d6d6" rx=".777" ry="1.166"/><ellipse cx="491.149" cy="281.787" fill="#d6d6d6" rx=".777" ry="1.166"/><ellipse cx="481.821" cy="277.901" fill="#d6d6d6" rx=".777" ry="1.166"/><circle cx="515.246" cy="280.621" r="12.438" fill="#d6d6d6"/><path d="M680.57452,488.65407a9.32813,9.32813,0,1,1-18.65626,0" opacity=".2" transform="translate(-156 -207.2555)"/><path d="M661.91826,487.09938a9.32813,9.32813,0,1,1,18.65626,0" opacity=".2" transform="translate(-156 -207.2555)"/><ellipse cx="510.582" cy="276.346" fill="#d6d6d6" rx=".777" ry="1.166"/><ellipse cx="515.246" cy="274.791" fill="#d6d6d6" rx=".777" ry="1.166"/><ellipse cx="515.246" cy="284.897" fill="#d6d6d6" rx=".777" ry="1.166"/><ellipse cx="519.91" cy="278.678" fill="#d6d6d6" rx=".777" ry="1.166"/><ellipse cx="519.133" cy="287.229" fill="#d6d6d6" rx=".777" ry="1.166"/><ellipse cx="509.805" cy="283.342" fill="#d6d6d6" rx=".777" ry="1.166"/><circle cx="534.68" cy="293.836" r="12.438" fill="#ff6584"/><path d="M700.00812,501.86892a9.32812,9.32812,0,1,1-18.65625,0" opacity=".2" transform="translate(-156 -207.2555)"/><path d="M681.35187,500.31423a9.32812,9.32812,0,1,1,18.65625,0" opacity=".2" transform="translate(-156 -207.2555)"/><ellipse cx="530.016" cy="289.561" fill="#ff6584" rx=".777" ry="1.166"/><ellipse cx="534.68" cy="288.006" fill="#ff6584" rx=".777" ry="1.166"/><ellipse cx="534.68" cy="298.111" fill="#ff6584" rx=".777" ry="1.166"/><ellipse cx="539.344" cy="291.893" fill="#ff6584" rx=".777" ry="1.166"/><ellipse cx="538.567" cy="300.443" fill="#ff6584" rx=".777" ry="1.166"/><ellipse cx="529.239" cy="296.557" fill="#ff6584" rx=".777" ry="1.166"/><circle cx="374.734" cy="246.418" r="3.297" fill="#3f3d56"/><polygon fill="#f9a825" points="464.345 366.08 385.17 344.123 388.203 332.857 467.378 354.815 464.345 366.08"/><path fill="#f9a825" d="M608.73806,569.57043a218.26828,218.26828,0,0,1-82.07767,0V557.89212a250.99129,250.99129,0,0,0,82.07767,0Z" transform="translate(-156 -207.2555)"/><path fill="#f9a825" d="M617.17595,534.53552a218.26828,218.26828,0,0,1-82.07767,0V522.85721a250.99184,250.99184,0,0,0,82.07767,0Z" transform="translate(-156 -207.2555)"/><path fill="#f9a825" d="M645.558,548.54948a218.26833,218.26833,0,0,1-82.07768,0v-11.6783a250.9919,250.9919,0,0,0,82.07768,0Z" transform="translate(-156 -207.2555)"/><path fill="#f9a825" d="M652.46168,561.78489a218.26787,218.26787,0,0,1-82.07767,0v-11.6783a250.99184,250.99184,0,0,0,82.07767,0Z" transform="translate(-156 -207.2555)"/><polygon fill="#f9a825" points="520.531 371.824 439.554 385.426 437.676 373.904 518.652 360.302 520.531 371.824"/><path fill="#f9a825" d="M664.43494,580.57677a219.97,219.97,0,0,1-74.58008,34.78439l-4.80446-10.61152a252.95437,252.95437,0,0,0,74.58007-34.78439Z" transform="translate(-156 -207.2555)"/><path fill="#f9a825" d="M657.68866,545.16625a219.96991,219.96991,0,0,1-74.58007,34.78439l-4.80446-10.61152a252.95437,252.95437,0,0,0,74.58007-34.78439Z" transform="translate(-156 -207.2555)"/><path fill="#f9a825" d="M689.24339,545.87182a219.96977,219.96977,0,0,1-74.58008,34.78439l-4.80446-10.61151a252.95471,252.95471,0,0,0,74.58008-34.7844Z" transform="translate(-156 -207.2555)"/><path fill="#f9a825" d="M700.96153,554.97242a219.96991,219.96991,0,0,1-74.58007,34.78439L621.577,579.14529a252.95437,252.95437,0,0,0,74.58007-34.78439Z" transform="translate(-156 -207.2555)"/><rect width="3.887" height="3.887" x="442.953" y="324.93" fill="#00bf71"/><rect width="3.887" height="3.887" x="454.614" y="392.559" fill="#00bf71"/><rect width="3.887" height="3.887" x="392.426" y="324.93" fill="#00bf71"/><rect width="3.887" height="3.887" x="482.598" y="373.125" fill="#00bf71"/><rect width="3.887" height="3.887" x="484.93" y="350.582" fill="#00bf71"/><rect width="5.441" height="3.109" x="574.856" y="545.4" fill="#00bf71" transform="translate(250.70796 -437.19066) rotate(34.15572)"/><rect width="5.441" height="3.109" x="620.719" y="553.951" fill="#00bf71" transform="translate(263.41949 -461.46545) rotate(34.15572)"/><rect width="5.441" height="3.109" x="564.75" y="568.721" fill="#00bf71" transform="translate(262.05797 -427.49459) rotate(34.15572)"/><rect width="5.441" height="3.109" x="596.621" y="565.611" fill="#00bf71" transform="translate(1249.17714 182.37779) rotate(124.15572)"/><rect width="5.441" height="3.109" x="617.61" y="571.053" fill="#00bf71" transform="translate(1286.45203 173.50612) rotate(124.15572)"/><rect width="5.441" height="3.109" x="673.578" y="552.396" fill="#00bf71" transform="matrix(-0.56144, 0.82751, -0.82751, -0.56144, 1358.40581, 98.06043)"/><rect width="888" height="2.241" y="483.248" fill="#3f3d56"/></svg>