<svg xmlns="http://www.w3.org/2000/svg" xmlns:xlink="http://www.w3.org/1999/xlink" width="894.264" height="227.88" viewBox="0 0 894.264 227.88"><g><path fill="#3f3d56" d="M0,226.69026c0,.66003,.53003,1.19,1.19006,1.19H886.48004c.65997,0,1.19-.52997,1.19-1.19,0-.65997-.53003-1.19-1.19-1.19H1.19006c-.66003,0-1.19006,.53003-1.19006,1.19Z"/><g><polygon fill="#e6e6e6" points="420.539 99.244 420.539 223.931 24.665 223.931 24.665 115.187 37.802 89.035 415.123 89.035 420.539 99.244"/><polygon fill="#2f2e41" points="444.264 143.942 420.539 127.308 378.511 97.848 316.147 145.298 24.665 146.925 8.674 147.013 24.665 115.187 37.802 89.035 53.813 27.349 397.491 25.994 415.123 89.035 420.539 99.244 444.264 143.942"/><polygon fill="#e6e6e6" points="271.408 127.284 114.143 127.284 114.143 60.853 192.776 32.095 271.408 60.853 271.408 127.284"/><rect width="69.142" height="68.126" x="37.206" y="155.805" fill="#fff"/><rect width="125.405" height="68.126" x="132.785" y="155.805" fill="#fff"/><rect width="21.014" height="62.703" x="281.915" y="161.228" fill="#fff"/><g><rect width="42.755" height="43.247" x="351.38" y="147.01" fill="#d6d6d6"/><rect width="2.949" height="43.247" x="371.037" y="147.01" fill="#e6e6e6"/></g><g><rect width="42.755" height="43.247" x="215.129" y="72.445" fill="#d6d6d6"/><rect width="2.949" height="43.247" x="234.786" y="72.445" fill="#e6e6e6"/></g><g><rect width="42.755" height="43.247" x="136.496" y="72.445" fill="#d6d6d6"/><rect width="2.949" height="43.247" x="156.154" y="72.445" fill="#e6e6e6"/></g></g><g><polygon fill="#e6e6e6" points="870.539 99.244 870.539 223.931 474.665 223.931 474.665 115.187 487.802 89.035 865.123 89.035 870.539 99.244"/><polygon fill="#2f2e41" points="894.264 143.942 870.539 127.308 828.511 97.848 766.147 145.298 474.665 146.925 458.674 147.013 474.665 115.187 487.802 89.035 503.813 27.349 847.491 25.994 865.123 89.035 870.539 99.244 894.264 143.942"/><polygon fill="#e6e6e6" points="721.408 127.284 564.143 127.284 564.143 60.853 642.776 32.095 721.408 60.853 721.408 127.284"/><rect width="69.142" height="68.126" x="487.206" y="155.805" fill="#fff"/><rect width="125.405" height="68.126" x="582.785" y="155.805" fill="#fff"/><rect width="21.014" height="62.703" x="731.915" y="161.228" fill="#fff"/><g><rect width="42.755" height="43.247" x="801.38" y="147.01" fill="#d6d6d6"/><rect width="2.949" height="43.247" x="821.037" y="147.01" fill="#e6e6e6"/></g><g><rect width="42.755" height="43.247" x="665.129" y="72.445" fill="#d6d6d6"/><rect width="2.949" height="43.247" x="684.786" y="72.445" fill="#e6e6e6"/></g><g><rect width="42.755" height="43.247" x="586.496" y="72.445" fill="#d6d6d6"/><rect width="2.949" height="43.247" x="606.154" y="72.445" fill="#e6e6e6"/></g></g><rect width="20" height="20" x="812.264" y="111.931" fill="#3f3d56"/><rect width="20" height="20" x="367.264" y="111.931" fill="#3f3d56"/></g><rect width="10" height="32" x="226.967" fill="#2f2e41"/><rect width="10" height="32" x="659.967" fill="#2f2e41"/></svg>